<?xml version="1.0" encoding="utf-8"?>
<!-- Generator: Adobe Illustrator 16.0.0, SVG Export Plug-In . SVG Version: 6.00 Build 0)  -->
<!DOCTYPE svg PUBLIC "-//W3C//DTD SVG 1.1//EN" "http://www.w3.org/Graphics/SVG/1.1/DTD/svg11.dtd">
<svg version="1.1" id="Layer_1" xmlns="http://www.w3.org/2000/svg" xmlns:xlink="http://www.w3.org/1999/xlink" x="0px" y="0px"
	 width="60px" height="60px" viewBox="0 0 60 60" enable-background="new 0 0 60 60" xml:space="preserve">
<path fill="#414042" d="M32.11,14.369c-3.437,0-6.232,2.795-6.232,6.231c0,3.437,2.796,6.233,6.232,6.233s6.231-2.797,6.231-6.233
	C38.342,17.165,35.547,14.369,32.11,14.369z"/>
<path fill="#414042" d="M36.898,27.847h-9.587c-0.053,0.001-0.45,0.018-0.993,0.132l10.618,10.619v6.779h5.78V34.298
	C42.717,27.92,37.136,27.847,36.898,27.847z"/>
<polygon fill="#414042" points="30.672,45.377 35.944,45.377 35.944,40.105 "/>
<rect x="15.138" y="21.896" transform="matrix(0.707 0.7072 -0.7072 0.707 23.6396 -4.2637)" fill="#414042" width="3.656" height="9.008"/>
<rect x="13.719" y="36.541" transform="matrix(-0.7071 -0.7071 0.7071 -0.7071 13.2853 80.7644)" fill="#414042" width="19.3" height="2.179"/>
<rect x="16.134" y="33.884" transform="matrix(-0.7071 -0.7071 0.7071 -0.7071 19.1126 78.3503)" fill="#414042" width="19.299" height="2.665"/>
<polygon fill="#414042" points="29.847,35.993 34.25,40.396 35.792,38.855 22.145,25.209 20.603,26.75 "/>
</svg>
