<?xml version="1.0" encoding="utf-8"?>
<!-- Generator: Adobe Illustrator 16.0.0, SVG Export Plug-In . SVG Version: 6.00 Build 0)  -->
<!DOCTYPE svg PUBLIC "-//W3C//DTD SVG 1.1//EN" "http://www.w3.org/Graphics/SVG/1.1/DTD/svg11.dtd">
<svg version="1.1" id="Layer_1" xmlns="http://www.w3.org/2000/svg" xmlns:xlink="http://www.w3.org/1999/xlink" x="0px" y="0px"
	 width="60px" height="60px" viewBox="0 0 60 60" enable-background="new 0 0 60 60" xml:space="preserve">
<path fill="#414042" d="M37.108,17.688c-6.8-3.926-15.494-1.596-19.42,5.204c-3.926,6.801-1.597,15.496,5.203,19.421
	s15.495,1.597,19.421-5.204C46.238,30.31,43.909,21.613,37.108,17.688z M26.871,35.188l-0.709,0.705l-5.699-5.734l5.689-6.042
	l0.728,0.686l-5.026,5.337L26.871,35.188z M29.888,32.986l-0.975-0.223l1.41-6.147l0.975,0.223L29.888,32.986z M33.838,35.894
	l-0.709-0.705l5.016-5.049l-5.025-5.337l0.729-0.686l5.688,6.042L33.838,35.894z"/>
</svg>
