<?xml version="1.0" encoding="utf-8"?>
<!-- Generator: Adobe Illustrator 16.0.0, SVG Export Plug-In . SVG Version: 6.00 Build 0)  -->
<!DOCTYPE svg PUBLIC "-//W3C//DTD SVG 1.1//EN" "http://www.w3.org/Graphics/SVG/1.1/DTD/svg11.dtd">
<svg version="1.1" id="Layer_1" xmlns="http://www.w3.org/2000/svg" xmlns:xlink="http://www.w3.org/1999/xlink" x="0px" y="0px"
	 width="60px" height="60px" viewBox="0 0 60 60" enable-background="new 0 0 60 60" xml:space="preserve">
<path fill="none" d="M27.674,18.621L19.39,33.88c4.729,0,5.974,6.098,5.974,6.098l2.311,0.871l2.311-0.871
	c0,0,1.244-6.098,5.973-6.098L27.674,18.621z"/>
<g>
	<polygon fill="#414042" points="36.994,16.576 36.994,17.455 23.004,17.455 23.004,16.576 20.248,16.576 20.248,19.333 
		23.004,19.333 23.004,18.455 36.994,18.455 36.994,19.333 39.752,19.333 39.752,16.576 	"/>
	<path fill="#414042" d="M38.284,32.773L30.5,18.435V28.72c0.583,0.207,1.003,0.758,1.003,1.412c0,0.83-0.673,1.502-1.503,1.502
		s-1.503-0.672-1.503-1.502c0-0.654,0.42-1.205,1.003-1.412V18.437l-7.784,14.337c3.906,0,5.432,4.151,5.846,5.6h-3.215v5.051
		h11.307v-5.051h-3.214C32.853,36.925,34.378,32.773,38.284,32.773z"/>
</g>
</svg>
