<?xml version="1.0" encoding="utf-8"?>
<!-- Generator: Adobe Illustrator 16.0.0, SVG Export Plug-In . SVG Version: 6.00 Build 0)  -->
<!DOCTYPE svg PUBLIC "-//W3C//DTD SVG 1.1//EN" "http://www.w3.org/Graphics/SVG/1.1/DTD/svg11.dtd">
<svg version="1.1" id="Layer_1" xmlns="http://www.w3.org/2000/svg" xmlns:xlink="http://www.w3.org/1999/xlink" x="0px" y="0px"
	 width="60px" height="60px" viewBox="0 0 60 60" enable-background="new 0 0 60 60" xml:space="preserve">
<path fill="#414042" d="M39.137,22.917c-2.354,0-4.433,1.151-5.721,2.917h-6.832c-1.289-1.766-3.367-2.917-5.72-2.917
	c-3.912,0-7.083,3.171-7.083,7.083s3.171,7.083,7.083,7.083c2.314,0,4.363-1.115,5.655-2.832h6.96
	c1.293,1.717,3.342,2.832,5.657,2.832c3.912,0,7.082-3.171,7.082-7.083S43.049,22.917,39.137,22.917z M23.668,30.864h-2.324v2.323
	h-1.416v-2.323h-2.322v-1.416h2.322v-2.323h1.416v2.323h2.324V30.864z M37.115,33.188c-0.518,0-0.938-0.42-0.938-0.938
	s0.42-0.938,0.938-0.938s0.938,0.42,0.938,0.938S37.633,33.188,37.115,33.188z M37.115,29c-0.518,0-0.938-0.42-0.938-0.938
	s0.42-0.938,0.938-0.938s0.938,0.42,0.938,0.938S37.633,29,37.115,29z M41.469,33.188c-0.518,0-0.938-0.42-0.938-0.938
	s0.42-0.938,0.938-0.938c0.519,0,0.938,0.42,0.938,0.938S41.987,33.188,41.469,33.188z M41.469,29c-0.518,0-0.938-0.42-0.938-0.938
	s0.42-0.938,0.938-0.938c0.519,0,0.938,0.42,0.938,0.938S41.987,29,41.469,29z"/>
</svg>
