<?xml version="1.0" encoding="utf-8"?>
<!-- Generator: Adobe Illustrator 16.0.0, SVG Export Plug-In . SVG Version: 6.00 Build 0)  -->
<!DOCTYPE svg PUBLIC "-//W3C//DTD SVG 1.1//EN" "http://www.w3.org/Graphics/SVG/1.1/DTD/svg11.dtd">
<svg version="1.1" id="Layer_1" xmlns="http://www.w3.org/2000/svg" xmlns:xlink="http://www.w3.org/1999/xlink" x="0px" y="0px"
	 width="60px" height="60px" viewBox="0 0 60 60" enable-background="new 0 0 60 60" xml:space="preserve">
<g>
	<path fill="#414042" d="M32.593,33.777c0.299-0.24,0.584-0.502,0.854-0.785c-0.61-0.693-1.136-1.375-1.335-1.867
		c-0.105-0.256,0.018-0.547,0.273-0.652c0.256-0.104,0.548,0.021,0.652,0.275c0.146,0.357,0.562,0.898,1.072,1.482
		c0.949-1.197,1.629-2.504,1.865-3.293h-4.948L32.593,33.777z"/>
	<path fill="#414042" d="M37.108,17.688c-6.8-3.926-15.494-1.597-19.42,5.203c-3.926,6.8-1.597,15.496,5.203,19.421
		s15.495,1.596,19.421-5.203C46.238,30.309,43.909,21.614,37.108,17.688z M27.243,31.908c-0.056,0.02-0.111,0.029-0.168,0.029
		c-0.205,0-0.396-0.127-0.47-0.332l-0.597-1.668h-2.866l-0.595,1.668c-0.094,0.262-0.379,0.396-0.64,0.303
		c-0.26-0.092-0.396-0.379-0.303-0.639l2.5-7c0.142-0.398,0.798-0.398,0.94,0l2.5,7C27.639,31.529,27.503,31.816,27.243,31.908z
		 M38.074,28.938h-1.073c-0.232,1.023-1.078,2.631-2.217,4.033c0.799,0.846,1.661,1.668,2.129,2.098
		c0.203,0.188,0.219,0.504,0.031,0.707c-0.098,0.107-0.234,0.162-0.369,0.162c-0.121,0-0.242-0.043-0.338-0.131
		c-0.189-0.174-1.158-1.068-2.117-2.082c-0.383,0.4-0.779,0.771-1.197,1.072l0.773,2.391h-1.051l-4.65-14.375h1.051l1.658,5.125
		h2.871v-0.5c0-0.277,0.225-0.5,0.5-0.5c0.276,0,0.5,0.223,0.5,0.5v0.5h3.499c0.276,0,0.5,0.223,0.5,0.5
		C38.574,28.713,38.351,28.938,38.074,28.938z"/>
	<polygon fill="#414042" points="23.499,28.938 25.651,28.938 24.575,25.924 	"/>
</g>
</svg>
